# This file uses centimeters as units for non-parametric coordinates.

mtllib Interogation.mtl
g default
v 3.208949 -0.254933 -0.300787
v 2.933627 -0.254933 -0.500820
v 2.593311 -0.254933 -0.500820
v 2.317989 -0.254933 -0.300787
v 2.212825 -0.254933 0.022873
v 2.317989 -0.254933 0.346534
v 2.593311 -0.254933 0.546567
v 2.933627 -0.254933 0.546567
v 3.208949 -0.254933 0.346534
v 3.314113 -0.254933 0.022873
v 3.208949 0.199662 -0.300787
v 2.933627 0.199662 -0.500820
v 2.593311 0.199662 -0.500820
v 2.317989 0.199662 -0.300787
v 2.212825 0.199662 0.022873
v 2.317989 0.199662 0.346534
v 2.593311 0.199662 0.546567
v 2.933627 0.199662 0.546567
v 3.208949 0.199662 0.346534
v 3.314113 0.199662 0.022873
v 2.763469 0.199662 0.022873
v -1.785467 0.165877 1.857336
v -0.698004 0.165877 1.573166
v -1.699478 0.254592 0.968321
v -0.790023 0.254592 1.086920
v -2.993481 0.175884 1.170908
v -2.288300 0.244586 0.604227
v -3.314113 0.235922 -0.344230
v -2.435455 0.218355 -0.148200
v -2.447871 0.245928 -1.628778
v -2.028873 0.208349 -0.845460
v -0.871723 0.247949 -1.830099
v -1.163172 0.206328 -0.941434
v 0.309096 0.254933 -0.904942
v -0.054838 0.199344 -0.014803
v 1.231980 0.247429 -0.437807
v 1.149206 0.206848 0.394800
v -0.239021 0.251932 -1.441466
v 0.563526 0.202346 0.348812
v 0.785108 0.251932 -0.533220
v 1.673606 0.208349 0.361001
v 1.692680 0.245928 -0.356760
v -1.221009 0.165877 1.786062
v -1.267019 0.254592 1.042939
v -2.042867 0.254592 0.832430
v -2.432832 0.165877 1.645364
v -2.426893 0.248374 0.252673
v -3.297793 0.205903 0.454729
v -2.308048 0.208349 -0.580274
v -3.075523 0.245928 -1.053413
v -1.685656 0.208349 -0.993889
v -1.685416 0.245928 -1.857336
v -0.677292 0.202346 -0.560436
v -1.785467 -0.228847 1.857336
v -1.221009 -0.228847 1.786062
v -0.698004 -0.228847 1.573166
v -1.699478 -0.140132 0.968321
v -1.267019 -0.140132 1.042939
v -0.790023 -0.140132 1.086920
v -2.432832 -0.228847 1.645364
v -2.993481 -0.218841 1.170908
v -2.042867 -0.140132 0.832430
v -2.288300 -0.150139 0.604227
v -3.297793 -0.188821 0.454729
v -3.314113 -0.158802 -0.344230
v -2.426893 -0.146350 0.252673
v -2.435455 -0.176369 -0.148200
v -3.075523 -0.148796 -1.053413
v -2.447871 -0.148796 -1.628778
v -2.308048 -0.186375 -0.580274
v -2.028873 -0.186375 -0.845460
v -1.685416 -0.148796 -1.857336
v -0.871723 -0.146775 -1.830099
v -1.685656 -0.186375 -0.993889
v -1.163172 -0.188396 -0.941434
v -0.239021 -0.142793 -1.441466
v 0.309096 -0.139791 -0.904942
v -0.677292 -0.192378 -0.560436
v -0.054838 -0.195380 -0.014803
v 0.785108 -0.142793 -0.533220
v 1.231980 -0.147295 -0.437807
v 0.563526 -0.192378 0.348812
v 1.149206 -0.187876 0.394800
v 1.692680 -0.148796 -0.356760
v 1.673606 -0.186375 0.361001
vt 0.375000 0.312500
vt 0.400000 0.312500
vt 0.425000 0.312500
vt 0.450000 0.312500
vt 0.475000 0.312500
vt 0.500000 0.312500
vt 0.525000 0.312500
vt 0.550000 0.312500
vt 0.575000 0.312500
vt 0.600000 0.312500
vt 0.625000 0.312500
vt 0.375000 0.688440
vt 0.400000 0.688440
vt 0.425000 0.688440
vt 0.450000 0.688440
vt 0.475000 0.688440
vt 0.500000 0.688440
vt 0.525000 0.688440
vt 0.550000 0.688440
vt 0.575000 0.688440
vt 0.600000 0.688440
vt 0.625000 0.688440
vt 0.626409 0.751909
vt 0.548284 0.695147
vt 0.451716 0.695147
vt 0.373591 0.751909
vt 0.343750 0.843750
vt 0.373591 0.935591
vt 0.451716 0.992353
vt 0.548284 0.992353
vt 0.626409 0.935591
vt 0.656250 0.843750
vt 0.500000 0.837500
vt 0.375000 0.250000
vt 0.500000 0.250000
vt 0.625000 0.250000
vt 0.625000 0.500000
vt 0.500000 0.500000
vt 0.375000 0.500000
vt 0.000000 0.000000
vt 0.000000 0.500000
vt 1.000000 0.000000
vt 1.000000 0.500000
vt 1.000000 1.000000
vt 0.000000 1.000000
vt 0.000000 0.000000
vt 0.000000 0.500000
vt 1.000000 0.000000
vt 1.000000 0.500000
vt 1.000000 1.000000
vt 0.000000 1.000000
vt 0.000000 0.000000
vt 0.000000 0.500000
vt 1.000000 0.000000
vt 1.000000 0.500000
vt 1.000000 1.000000
vt 0.000000 1.000000
vt 0.000000 0.000000
vt 0.000000 0.500000
vt 1.000000 0.000000
vt 1.000000 0.500000
vt 1.000000 1.000000
vt 0.000000 1.000000
vt 0.000000 0.000000
vt 0.000000 0.500000
vt 1.000000 0.000000
vt 1.000000 0.500000
vt 1.000000 1.000000
vt 0.000000 1.000000
vt 0.000000 0.000000
vt 0.000000 0.500000
vt 1.000000 0.000000
vt 1.000000 0.500000
vt 1.000000 1.000000
vt 0.000000 1.000000
vt 0.000000 0.000000
vt 0.000000 0.500000
vt 1.000000 0.000000
vt 1.000000 0.500000
vt 0.000000 0.000000
vt 1.000000 0.000000
vt 1.000000 1.000000
vt 0.000000 1.000000
vt 0.000000 0.000000
vt 1.000000 0.000000
vt 1.000000 1.000000
vt 0.000000 1.000000
vt 0.000000 0.000000
vt 1.000000 0.000000
vt 1.000000 1.000000
vt 0.000000 1.000000
vt 0.000000 0.000000
vt 1.000000 0.000000
vt 1.000000 1.000000
vt 0.000000 1.000000
vt 1.000000 0.000000
vt 1.000000 1.000000
vt 0.000000 0.000000
vt 0.000000 1.000000
vt 0.000000 0.000000
vt 1.000000 0.000000
vt 1.000000 1.000000
vt 0.000000 1.000000
vt 0.000000 0.000000
vt 1.000000 0.000000
vt 1.000000 1.000000
vt 0.000000 1.000000
vt 0.000000 0.000000
vt 1.000000 0.000000
vt 1.000000 1.000000
vt 0.000000 1.000000
vt 0.000000 0.000000
vt 1.000000 0.000000
vt 1.000000 1.000000
vt 0.000000 1.000000
vt 0.000000 0.000000
vt 1.000000 0.000000
vt 1.000000 1.000000
vt 0.000000 1.000000
vt 0.000000 0.000000
vt 1.000000 0.000000
vt 1.000000 1.000000
vt 0.000000 1.000000
vt 0.000000 0.000000
vt 1.000000 0.000000
vt 1.000000 1.000000
vt 0.000000 1.000000
vt 0.000000 0.000000
vt 1.000000 0.000000
vt 1.000000 1.000000
vt 0.000000 1.000000
vt 0.000000 0.000000
vt 1.000000 0.000000
vt 1.000000 1.000000
vt 0.000000 1.000000
vt 0.000000 0.000000
vt 1.000000 0.000000
vt 1.000000 1.000000
vt 0.000000 1.000000
vt 0.000000 0.000000
vt 1.000000 0.000000
vt 1.000000 1.000000
vt 0.000000 1.000000
vt 0.000000 0.000000
vt 1.000000 0.000000
vt 1.000000 1.000000
vt 0.000000 1.000000
vt 0.000000 0.000000
vt 1.000000 0.000000
vt 1.000000 1.000000
vt 0.000000 1.000000
vt 0.000000 0.000000
vt 1.000000 0.000000
vt 1.000000 1.000000
vt 0.000000 1.000000
vt 0.000000 0.000000
vt 1.000000 0.000000
vt 1.000000 1.000000
vt 0.000000 1.000000
vt 0.000000 0.000000
vt 1.000000 0.000000
vt 1.000000 1.000000
vt 0.000000 1.000000
vt 0.000000 0.000000
vt 1.000000 0.000000
vt 1.000000 1.000000
vt 0.000000 1.000000
vt 0.000000 0.000000
vt 1.000000 0.000000
vt 1.000000 1.000000
vt 0.000000 1.000000
vt 0.000000 0.000000
vt 1.000000 0.000000
vt 1.000000 1.000000
vt 0.000000 1.000000
vt 0.000000 0.000000
vt 1.000000 0.000000
vt 1.000000 1.000000
vt 0.000000 1.000000
vt 0.000000 0.000000
vt 1.000000 0.000000
vt 1.000000 1.000000
vt 0.000000 1.000000
vt 0.000000 0.000000
vt 1.000000 0.000000
vt 1.000000 1.000000
vt 0.000000 1.000000
vt 0.000000 0.000000
vt 1.000000 0.000000
vt 1.000000 1.000000
vt 0.000000 1.000000
vt 0.000000 0.000000
vt 1.000000 0.000000
vt 1.000000 1.000000
vt 0.000000 1.000000
vt 0.000000 0.000000
vt 1.000000 0.000000
vt 1.000000 1.000000
vt 0.000000 1.000000
vt 0.000000 0.000000
vt 1.000000 0.000000
vt 1.000000 1.000000
vt 0.000000 1.000000
vt 0.000000 0.000000
vt 0.000000 1.000000
vt 1.000000 0.000000
vt 1.000000 1.000000
vn 0.587785 0.000000 -0.809017
vn 0.587785 0.000000 -0.809017
vn 0.587785 0.000000 -0.809017
vn 0.587785 0.000000 -0.809017
vn -0.000000 0.000000 -1.000000
vn -0.000000 0.000000 -1.000000
vn -0.000000 0.000000 -1.000000
vn -0.000000 0.000000 -1.000000
vn -0.587785 0.000000 -0.809017
vn -0.587785 0.000000 -0.809017
vn -0.587785 0.000000 -0.809017
vn -0.587785 0.000000 -0.809017
vn -0.951057 0.000000 -0.309017
vn -0.951057 0.000000 -0.309017
vn -0.951057 0.000000 -0.309017
vn -0.951057 0.000000 -0.309017
vn -0.951057 0.000000 0.309017
vn -0.951057 0.000000 0.309017
vn -0.951057 0.000000 0.309017
vn -0.951057 0.000000 0.309017
vn -0.587785 0.000000 0.809017
vn -0.587785 0.000000 0.809017
vn -0.587785 0.000000 0.809017
vn -0.587785 0.000000 0.809017
vn 0.000000 0.000000 1.000000
vn 0.000000 0.000000 1.000000
vn 0.000000 0.000000 1.000000
vn 0.000000 0.000000 1.000000
vn 0.587785 0.000000 0.809017
vn 0.587785 0.000000 0.809017
vn 0.587785 0.000000 0.809017
vn 0.587785 0.000000 0.809017
vn 0.951057 0.000000 0.309017
vn 0.951057 0.000000 0.309017
vn 0.951057 0.000000 0.309017
vn 0.951057 0.000000 0.309017
vn 0.951057 0.000000 -0.309017
vn 0.951057 0.000000 -0.309017
vn 0.951057 0.000000 -0.309017
vn 0.951057 0.000000 -0.309017
vn 0.000000 1.000000 0.000000
vn 0.000000 1.000000 0.000000
vn 0.000000 1.000000 0.000000
vn 0.000000 1.000000 0.000000
vn 0.000000 1.000000 0.000000
vn 0.000000 1.000000 0.000000
vn 0.000000 1.000000 0.000000
vn 0.000000 1.000000 0.000000
vn 0.000000 1.000000 0.000000
vn 0.000000 1.000000 -0.000000
vn 0.000000 1.000000 0.000000
vn -0.017830 0.994744 0.100833
vn 0.008568 0.992734 0.120021
vn 0.008735 0.992706 0.120245
vn -0.019529 0.994783 0.100127
vn 0.023682 0.989840 0.140201
vn 0.023682 0.989840 0.140201
vn -0.045384 0.995652 0.081342
vn -0.046781 0.995709 0.079841
vn -0.051633 0.996968 0.058213
vn -0.052119 0.996906 0.058841
vn -0.029928 0.999231 0.025340
vn -0.029465 0.999263 0.024602
vn 0.006739 0.999966 0.004698
vn 0.008892 0.999947 0.005149
vn 0.029583 0.999352 0.020519
vn 0.029583 0.999348 0.020704
vn 0.022619 0.999079 0.036454
vn 0.022072 0.999078 0.036816
vn 0.004301 0.999041 0.043584
vn 0.005782 0.999044 0.043344
vn -0.016022 0.998979 0.042245
vn -0.015816 0.998981 0.042283
vn -0.032753 0.998627 0.040890
vn -0.034300 0.998565 0.041127
vn -0.035441 0.998344 0.045317
vn -0.036525 0.998358 0.044119
vn -0.022816 0.998511 0.049552
vn -0.020954 0.998542 0.049755
vn -0.005049 0.998696 0.050809
vn -0.005042 0.998696 0.050808
vn -0.002407 0.998737 0.050193
vn -0.002407 0.998737 0.050193
vn 0.125275 0.000000 0.992122
vn 0.125275 0.000000 0.992122
vn 0.125275 0.000000 0.992122
vn 0.125275 0.000000 0.992122
vn 0.377024 0.000000 0.926204
vn 0.377024 0.000000 0.926204
vn 0.377024 0.000000 0.926204
vn 0.377024 0.000000 0.926204
vn 0.170030 0.000000 -0.985439
vn 0.170030 0.000000 -0.985439
vn 0.170030 0.000000 -0.985439
vn 0.170030 0.000000 -0.985439
vn 0.091814 0.000000 -0.995776
vn 0.091814 0.000000 -0.995776
vn 0.091814 0.000000 -0.995776
vn 0.091814 0.000000 -0.995776
vn 0.982561 0.000000 -0.185943
vn 0.982561 0.000000 -0.185943
vn 0.982561 0.000000 -0.185943
vn 0.982561 0.000000 -0.185943
vn -0.311181 0.000000 0.950351
vn -0.311181 0.000000 0.950351
vn -0.311181 0.000000 0.950351
vn -0.311181 0.000000 0.950351
vn -0.645991 0.000000 0.763345
vn -0.645991 0.000000 0.763345
vn -0.645991 0.000000 0.763345
vn -0.645991 0.000000 0.763345
vn 0.367971 0.000000 -0.929837
vn 0.367971 0.000000 -0.929837
vn 0.367971 0.000000 -0.929837
vn 0.367971 0.000000 -0.929837
vn 0.680934 0.000000 -0.732345
vn 0.680934 0.000000 -0.732345
vn 0.680934 0.000000 -0.732345
vn 0.680934 0.000000 -0.732345
vn -0.920361 0.000000 0.391071
vn -0.920361 0.000000 0.391071
vn -0.920361 0.000000 0.391071
vn -0.920361 0.000000 0.391071
vn -0.999791 0.000000 0.020423
vn -0.999792 0.000000 0.020423
vn -0.999791 0.000000 0.020423
vn -0.999792 0.000000 0.020423
vn 0.930316 0.000000 -0.366759
vn 0.930316 0.000000 -0.366759
vn 0.930316 0.000000 -0.366759
vn 0.930316 0.000000 -0.366759
vn 0.999772 0.000000 -0.021353
vn 0.999772 0.000000 -0.021353
vn 0.999772 0.000000 -0.021353
vn 0.999772 0.000000 -0.021353
vn -0.947799 0.000000 -0.318868
vn -0.947799 0.000000 -0.318868
vn -0.947799 0.000000 -0.318868
vn -0.947799 0.000000 -0.318868
vn -0.675736 0.000000 -0.737144
vn -0.675736 0.000000 -0.737144
vn -0.675736 0.000000 -0.737144
vn -0.675736 0.000000 -0.737144
vn 0.959169 0.000000 0.282833
vn 0.959169 0.000000 0.282833
vn 0.959169 0.000000 0.282833
vn 0.959169 0.000000 0.282833
vn 0.688709 0.000000 0.725038
vn 0.688709 0.000000 0.725038
vn 0.688709 0.000000 0.725038
vn 0.688709 0.000000 0.725038
vn -0.287141 0.000000 -0.957888
vn -0.287141 0.000000 -0.957888
vn -0.287141 0.000000 -0.957888
vn -0.287141 0.000000 -0.957888
vn 0.033454 0.000000 -0.999440
vn 0.033454 0.000000 -0.999440
vn 0.033454 0.000000 -0.999440
vn 0.033454 0.000000 -0.999440
vn 0.396936 0.000000 0.917846
vn 0.396936 0.000000 0.917846
vn 0.396936 0.000000 0.917846
vn 0.396936 0.000000 0.917846
vn -0.099893 0.000000 0.994998
vn -0.099893 0.000000 0.994998
vn -0.099893 0.000000 0.994998
vn -0.099893 0.000000 0.994998
vn 0.523392 0.000000 -0.852092
vn 0.523392 0.000000 -0.852092
vn 0.523392 0.000000 -0.852092
vn 0.523392 0.000000 -0.852092
vn 0.699509 0.000000 -0.714624
vn 0.699509 0.000000 -0.714624
vn 0.699509 0.000000 -0.714624
vn 0.699509 0.000000 -0.714624
vn -0.617056 0.000000 0.786920
vn -0.617056 0.000000 0.786920
vn -0.617056 0.000000 0.786920
vn -0.617056 0.000000 0.786920
vn -0.659179 0.000000 0.751986
vn -0.659179 0.000000 0.751986
vn -0.659179 0.000000 0.751986
vn -0.659179 0.000000 0.751986
vn 0.615477 0.000000 -0.788155
vn 0.615477 0.000000 -0.788155
vn 0.615477 0.000000 -0.788155
vn 0.615477 0.000000 -0.788155
vn 0.208806 0.000000 -0.977957
vn 0.208806 0.000000 -0.977957
vn 0.208806 0.000000 -0.977957
vn 0.208806 0.000000 -0.977957
vn -0.506887 0.000000 0.862012
vn -0.506887 0.000000 0.862012
vn -0.506887 0.000000 0.862012
vn -0.506887 0.000000 0.862012
vn -0.078280 0.000000 0.996931
vn -0.078280 0.000000 0.996931
vn -0.078280 0.000000 0.996931
vn -0.078280 0.000000 0.996931
vn 0.173261 0.000000 -0.984876
vn 0.173261 0.000000 -0.984876
vn 0.173261 0.000000 -0.984876
vn 0.173261 0.000000 -0.984876
vn 0.064320 0.000000 0.997929
vn 0.064320 0.000000 0.997929
vn 0.064320 0.000000 0.997929
vn 0.064320 0.000000 0.997929
vn 0.999647 0.000000 0.026565
vn 0.999647 0.000000 0.026565
vn 0.999647 0.000000 0.026565
vn 0.999647 0.000000 0.026565
s off
g interogation
usemtl initialShadingGroup
f 1/1/1 2/2/2 12/13/3 11/12/4
f 2/2/5 3/3/6 13/14/7 12/13/8
f 3/3/9 4/4/10 14/15/11 13/14/12
f 4/4/13 5/5/14 15/16/15 14/15/16
f 5/5/17 6/6/18 16/17/19 15/16/20
f 6/6/21 7/7/22 17/18/23 16/17/24
f 7/7/25 8/8/26 18/19/27 17/18/28
f 8/8/29 9/9/30 19/20/31 18/19/32
f 9/9/33 10/10/34 20/21/35 19/20/36
f 10/10/37 1/11/38 11/22/39 20/21/40
s 1
f 11/31/41 12/30/42 21/33/43
f 12/30/42 13/29/44 21/33/43
f 13/29/44 14/28/45 21/33/43
f 14/28/45 15/27/46 21/33/43
f 15/27/46 16/26/47 21/33/43
f 16/26/47 17/25/48 21/33/43
f 17/25/48 18/24/49 21/33/43
f 18/24/49 19/23/50 21/33/43
f 19/23/50 20/32/51 21/33/43
f 20/32/51 11/31/41 21/33/43
s 2
f 22/34/52 43/35/53 44/38/54 24/39/55
f 43/35/53 23/36/56 25/37/57 44/38/54
f 46/41/58 22/40/52 24/42/55 45/43/59
f 46/41/58 45/43/59 27/44/60 26/45/61
f 48/47/62 26/46/61 27/48/60 47/49/63
f 48/47/62 47/49/63 29/50/64 28/51/65
f 50/53/66 28/52/65 29/54/64 49/55/67
f 50/53/66 49/55/67 31/56/68 30/57/69
f 52/59/70 30/58/69 31/60/68 51/61/71
f 52/59/70 51/61/71 33/62/72 32/63/73
f 38/65/74 32/64/73 33/66/72 53/67/75
f 38/65/74 53/67/75 35/68/76 34/69/77
f 40/71/78 34/70/77 35/72/76 39/73/79
f 40/71/78 39/73/79 37/74/80 36/75/81
f 42/77/82 36/76/81 37/78/80 41/79/83
s off
f 43/80/84 22/81/85 54/82/86 55/83/87
f 23/84/88 43/85/89 55/86/90 56/87/91
f 24/88/92 44/89/93 58/90/94 57/91/95
f 44/92/96 25/93/97 59/94/98 58/95/99
f 56/97/100 59/99/101 25/98/102 23/96/103
f 22/100/104 46/101/105 60/102/106 54/103/107
f 46/104/108 26/105/109 61/106/110 60/107/111
f 45/108/112 24/109/113 57/110/114 62/111/115
f 27/112/116 45/113/117 62/114/118 63/115/119
f 26/116/120 48/117/121 64/118/122 61/119/123
f 48/120/124 28/121/125 65/122/126 64/123/127
f 47/124/128 27/125/129 63/126/130 66/127/131
f 29/128/132 47/129/133 66/130/134 67/131/135
f 28/132/136 50/133/137 68/134/138 65/135/139
f 50/136/140 30/137/141 69/138/142 68/139/143
f 49/140/144 29/141/145 67/142/146 70/143/147
f 31/144/148 49/145/149 70/146/150 71/147/151
f 30/148/152 52/149/153 72/150/154 69/151/155
f 52/152/156 32/153/157 73/154/158 72/155/159
f 51/156/160 31/157/161 71/158/162 74/159/163
f 33/160/164 51/161/165 74/162/166 75/163/167
f 32/164/168 38/165/169 76/166/170 73/167/171
f 38/168/172 34/169/173 77/170/174 76/171/175
f 53/172/176 33/173/177 75/174/178 78/175/179
f 35/176/180 53/177/181 78/178/182 79/179/183
f 34/180/184 40/181/185 80/182/186 77/183/187
f 40/184/188 36/185/189 81/186/190 80/187/191
f 39/188/192 35/189/193 79/190/194 82/191/195
f 37/192/196 39/193/197 82/194/198 83/195/199
f 36/196/200 42/197/201 84/198/202 81/199/203
f 41/200/204 37/201/205 83/202/206 85/203/207
f 85/207/208 84/205/209 42/204/210 41/206/211
